<?xml version="1.0" encoding="UTF-8"?>
<svg id="Layer_1" data-name="Layer 1" xmlns="http://www.w3.org/2000/svg" viewBox="0 0 5258 4553">
  <defs>
    <style>
      .cls-1 {
        fill: none;
      }

      .cls-1, .cls-2, .cls-3, .cls-4 {
        fill-rule: evenodd;
        stroke-width: 0px;
      }

      .cls-5 {
        font-family: Comfortaa-Light, Comfortaa;
        font-size: 1296px;
        font-weight: 300;
      }

      .cls-2 {
        fill: #4ecdc4;
      }

      .cls-3 {
        fill: #ffe66d;
      }

      .cls-4 {
        fill: #ff6b6b;
      }
    </style>
  </defs>
  <text class="cls-5" transform="translate(2026.75 2617.25)"><tspan x="0" y="0">m</tspan></text>
  <path class="cls-4" d="m3960.5,2276.5c0,651.29-467.6,1193.36-1085.4,1308.79-74.36,13.91-150.89,21.62-229.05,22.6,45.66-50.11,87.14-104.1,123.89-161.41,36.06-56.25,67.56-115.69,93.99-177.81,449.27-106.26,783.57-509.92,783.57-991.67,0-174.92-44.07-339.54-121.73-483.37,37.78-61.39,70.2-126.42,96.61-194.46,19.18-49.41,35.19-100.41,47.77-152.74,36.11,45.22,69.33,92.85,99.38,142.61,121.22,200.67,190.97,435.92,190.97,687.46Z"/>
  <path class="cls-1" d="m3425.45,1641.95c37.76,47.31,71.38,98.05,100.32,151.68-150.96,245.31-387.5,432.32-668.02,519.44-64.55,20.04-131.43,34.8-200.13,43.76-51.42,6.71-103.87,10.17-157.12,10.17-334.71,0-637.5-136.7-855.58-357.31,41.79-154.13,118.84-293.76,221.98-409.69,186.64-209.83,458.68-342,761.6-342,322.64,0,610.25,149.94,796.95,383.95Z"/>
  <path class="cls-3" d="m3670.15,1446.43c-12.58,52.33-28.59,103.33-47.77,152.74-26.41,68.04-58.83,133.07-96.61,194.46-28.94-53.63-62.56-104.37-100.32-151.68-186.7-234.01-474.31-383.95-796.95-383.95-302.92,0-574.96,132.17-761.6,342-103.14,115.93-180.19,255.56-221.98,409.69-87.94-88.96-162.11-191.56-219.03-304.36,12.04-25.32,24.85-50.2,38.41-74.6,227.25-408.98,663.65-685.73,1164.7-685.73,421.46,0,797.19,195.81,1041.15,501.43Z"/>
  <path class="cls-1" d="m2863.93,3268.67c-57.54,13.61-116.97,22.34-177.82,25.72-70.37-152.89-109.61-323.06-109.61-502.39,0-153.46,28.73-300.22,81.12-435.17,29.13-75.04,65.57-146.44,108.44-213.31,151.94-236.95,384.71-417.11,659.39-501.57,37.76,47.31,71.38,98.05,100.32,151.68,77.66,143.83,121.73,308.45,121.73,483.37,0,481.75-334.3,885.41-783.57,991.67Z"/>
  <path class="cls-2" d="m2863.93,3268.67c-26.43,62.12-57.93,121.56-93.99,177.81-36.75,57.31-78.23,111.3-123.89,161.41-5.68.07-11.36.11-17.05.11-735.37,0-1331.5-596.13-1331.5-1331.5,0-204.42,46.07-398.09,128.39-571.17,56.92,112.8,131.09,215.4,219.03,304.36-23.1,85.19-35.42,174.81-35.42,267.31,0,562.78,456.22,1019,1019,1019,19.33,0,38.54-.54,57.61-1.61,60.85-3.38,120.28-12.11,177.82-25.72Z"/>
  <path class="cls-1" d="m2959.5,2798c0,167.03-34.04,326.11-95.57,470.67-57.54,13.61-116.97,22.34-177.82,25.72-19.07,1.07-38.28,1.61-57.61,1.61-562.78,0-1019-456.22-1019-1019,0-92.5,12.32-182.12,35.42-267.31,41.79-154.13,118.84-293.76,221.98-409.69,376.89,34.29,703.56,242.41,899.16,543.52,34.89,53.71,65.61,110.38,91.69,169.55,65.43,148.34,101.75,312.39,101.75,484.93Z"/>
</svg>